<svg width="1284" height="2778" viewBox="0 0 1284 2778" fill="none" xmlns="http://www.w3.org/2000/svg">
  <rect width="1284" height="2778" fill="#f3f4f6"/>
  <rect x="0" y="0" width="1284" height="100" fill="#1e40af"/>
  <text x="642" y="60" text-anchor="middle" fill="white" font-family="Arial, sans-serif" font-size="32" font-weight="bold">BaseTime</text>
  <rect x="50" y="150" width="1184" height="200" rx="20" fill="white"/>
  <rect x="100" y="200" width="1084" height="100" rx="10" fill="#1e40af"/>
  <text x="642" y="260" text-anchor="middle" fill="white" font-family="Arial, sans-serif" font-size="24" font-weight="bold">Upcoming Events</text>
  <rect x="50" y="400" width="1184" height="300" rx="20" fill="white"/>
  <rect x="100" y="450" width="200" height="200" rx="10" fill="#e5e7eb"/>
  <rect x="350" y="450" width="800" height="40" rx="5" fill="#1e40af"/>
  <text x="750" y="480" text-anchor="middle" fill="white" font-family="Arial, sans-serif" font-size="18" font-weight="bold">Base Hackathon 2024</text>
  <rect x="350" y="510" width="600" height="20" rx="3" fill="#6b7280"/>
  <rect x="350" y="540" width="500" height="20" rx="3" fill="#6b7280"/>
  <rect x="350" y="570" width="400" height="20" rx="3" fill="#6b7280"/>
  <rect x="1000" y="600" width="150" height="40" rx="20" fill="#1e40af"/>
  <text x="1075" y="625" text-anchor="middle" fill="white" font-family="Arial, sans-serif" font-size="16">RSVP</text>
</svg>
