<svg width="1284" height="2778" viewBox="0 0 1284 2778" fill="none" xmlns="http://www.w3.org/2000/svg">
  <rect width="1284" height="2778" fill="#f3f4f6"/>
  <rect x="0" y="0" width="1284" height="100" fill="#1e40af"/>
  <text x="642" y="60" text-anchor="middle" fill="white" font-family="Arial, sans-serif" font-size="32" font-weight="bold">BaseTime</text>
  <rect x="50" y="150" width="1184" height="400" rx="20" fill="white"/>
  <rect x="100" y="200" width="1084" height="300" rx="10" fill="#1e40af"/>
  <text x="642" y="280" text-anchor="middle" fill="white" font-family="Arial, sans-serif" font-size="24" font-weight="bold">Calendar View</text>
  <rect x="150" y="350" width="100" height="80" rx="5" fill="white"/>
  <rect x="270" y="350" width="100" height="80" rx="5" fill="white"/>
  <rect x="390" y="350" width="100" height="80" rx="5" fill="white"/>
  <rect x="510" y="350" width="100" height="80" rx="5" fill="white"/>
  <rect x="630" y="350" width="100" height="80" rx="5" fill="white"/>
  <rect x="750" y="350" width="100" height="80" rx="5" fill="white"/>
  <rect x="870" y="350" width="100" height="80" rx="5" fill="white"/>
  <rect x="150" y="450" width="100" height="80" rx="5" fill="white"/>
  <rect x="270" y="450" width="100" height="80" rx="5" fill="#e5e7eb"/>
  <rect x="390" y="450" width="100" height="80" rx="5" fill="white"/>
  <rect x="510" y="450" width="100" height="80" rx="5" fill="white"/>
  <rect x="630" y="450" width="100" height="80" rx="5" fill="white"/>
  <rect x="750" y="450" width="100" height="80" rx="5" fill="white"/>
  <rect x="870" y="450" width="100" height="80" rx="5" fill="white"/>
</svg>
